<svg width="80" height="16" viewBox="0 0 80 16" fill="none"
    xmlns="http://www.w3.org/2000/svg">
    <path d="M7.41353 1.9461C7.61631 1.39565 8.3834 1.39565 8.58619 1.9461L9.86372 5.41385C9.9517 5.65264 10.1718 5.81494 10.4227 5.82607L14.0668 5.98769C14.6453 6.01335 14.8823 6.75383 14.4292 7.11967L11.5747 9.42448C11.3781 9.58319 11.294 9.8458 11.3611 10.0915L12.3358 13.6591C12.4905 14.2254 11.8699 14.683 11.3871 14.3587L8.34534 12.3154C8.13588 12.1747 7.86384 12.1747 7.65437 12.3154L4.61263 14.3587C4.1298 14.683 3.50921 14.2254 3.66392 13.6591L4.63857 10.0915C4.70569 9.8458 4.62162 9.58319 4.42505 9.42448L1.57049 7.11967C1.11738 6.75383 1.35443 6.01335 1.93287 5.98769L5.57698 5.82607C5.82793 5.81494 6.04802 5.65264 6.13599 5.41384L7.41353 1.9461Z" fill="#FED833"/>
    <path d="M23.4135 1.9461C23.6163 1.39565 24.3834 1.39565 24.5862 1.9461L25.8637 5.41385C25.9517 5.65264 26.1718 5.81494 26.4227 5.82607L30.0668 5.98769C30.6453 6.01335 30.8823 6.75383 30.4292 7.11967L27.5747 9.42448C27.3781 9.58319 27.294 9.8458 27.3611 10.0915L28.3358 13.6591C28.4905 14.2254 27.8699 14.683 27.3871 14.3587L24.3453 12.3154C24.1359 12.1747 23.8638 12.1747 23.6544 12.3154L20.6126 14.3587C20.1298 14.683 19.5092 14.2254 19.6639 13.6591L20.6386 10.0915C20.7057 9.8458 20.6216 9.58319 20.4251 9.42448L17.5705 7.11967C17.1174 6.75383 17.3544 6.01335 17.9329 5.98769L21.577 5.82607C21.8279 5.81494 22.048 5.65264 22.136 5.41384L23.4135 1.9461Z" fill="#FED833"/>
    <path d="M39.4135 1.9461C39.6163 1.39565 40.3834 1.39565 40.5862 1.9461L41.8637 5.41385C41.9517 5.65264 42.1718 5.81494 42.4227 5.82607L46.0668 5.98769C46.6453 6.01335 46.8823 6.75383 46.4292 7.11967L43.5747 9.42448C43.3781 9.58319 43.294 9.8458 43.3611 10.0915L44.3358 13.6591C44.4905 14.2254 43.8699 14.683 43.3871 14.3587L40.3453 12.3154C40.1359 12.1747 39.8638 12.1747 39.6544 12.3154L36.6126 14.3587C36.1298 14.683 35.5092 14.2254 35.6639 13.6591L36.6386 10.0915C36.7057 9.8458 36.6216 9.58319 36.4251 9.42448L33.5705 7.11967C33.1174 6.75383 33.3544 6.01335 33.9329 5.98769L37.577 5.82607C37.8279 5.81494 38.048 5.65264 38.136 5.41384L39.4135 1.9461Z" fill="#FED833"/>
    <path fill-rule="evenodd" clip-rule="evenodd" d="M56 1.53326C55.7575 1.5332 55.5149 1.67081 55.4135 1.9461L54.136 5.41385C54.048 5.65264 53.8279 5.81494 53.577 5.82607L49.9329 5.98769C49.3544 6.01335 49.1174 6.75383 49.5705 7.11967L52.4251 9.42448C52.6216 9.58319 52.7057 9.8458 52.6386 10.0915L51.6639 13.6591C51.5092 14.2254 52.1298 14.683 52.6126 14.3587L55.6544 12.3154C55.7592 12.245 55.8796 12.2099 56 12.2099V1.53326Z" fill="#FED833"/>
    <path fill-rule="evenodd" clip-rule="evenodd" d="M56 1.53326C56.2426 1.5332 56.4851 1.67081 56.5865 1.9461L57.8641 5.41385C57.952 5.65264 58.1721 5.81494 58.4231 5.82607L62.0672 5.98769C62.6456 6.01335 62.8827 6.75383 62.4296 7.11967L59.575 9.42448C59.3784 9.58319 59.2944 9.8458 59.3615 10.0915L60.3361 13.6591C60.4909 14.2254 59.8703 14.683 59.3874 14.3587L56.3457 12.3154C56.2409 12.245 56.1205 12.2099 56 12.2099V1.53326Z" fill="#E8E8E8"/>
    <path d="M71.4135 1.9461C71.6163 1.39565 72.3834 1.39565 72.5862 1.9461L73.8637 5.41385C73.9517 5.65264 74.1718 5.81494 74.4227 5.82607L78.0668 5.98769C78.6453 6.01335 78.8823 6.75383 78.4292 7.11967L75.5747 9.42448C75.3781 9.58319 75.294 9.8458 75.3611 10.0915L76.3358 13.6591C76.4905 14.2254 75.8699 14.683 75.3871 14.3587L72.3453 12.3154C72.1359 12.1747 71.8638 12.1747 71.6544 12.3154L68.6126 14.3587C68.1298 14.683 67.5092 14.2254 67.6639 13.6591L68.6386 10.0915C68.7057 9.8458 68.6216 9.58319 68.4251 9.42448L65.5705 7.11967C65.1174 6.75383 65.3544 6.01335 65.9329 5.98769L69.577 5.82607C69.8279 5.81494 70.048 5.65264 70.136 5.41384L71.4135 1.9461Z" fill="#E8E8E8"/>
</svg>
