<svg width="14" height="14" viewBox="0 0 14 14" fill="none" xmlns="http://www.w3.org/2000/svg">
<path d="M6.41353 0.946096C6.61631 0.395653 7.3834 0.395654 7.58619 0.946097L8.86372 4.41385C8.9517 4.65264 9.17179 4.81494 9.42273 4.82607L13.0668 4.98769C13.6453 5.01335 13.8823 5.75383 13.4292 6.11967L10.5747 8.42448C10.3781 8.58319 10.294 8.8458 10.3611 9.09148L11.3358 12.6591C11.4905 13.2254 10.8699 13.683 10.3871 13.3587L7.34534 11.3154C7.13588 11.1747 6.86384 11.1747 6.65437 11.3154L3.61263 13.3587C3.1298 13.683 2.50921 13.2254 2.66392 12.6591L3.63857 9.09148C3.70569 8.8458 3.62162 8.58319 3.42505 8.42448L0.570492 6.11967C0.117382 5.75383 0.354427 5.01335 0.932866 4.98769L4.57698 4.82607C4.82793 4.81494 5.04802 4.65264 5.13599 4.41384L6.41353 0.946096Z" fill="#E8E8E8"/>
</svg>
